<svg width="22" height="22" viewBox="0 0 22 22" fill="none" xmlns="http://www.w3.org/2000/svg">
<path d="M16 1H6C3.23858 1 1 3.23858 1 6V16C1 18.7614 3.23858 21 6 21H16C18.7614 21 21 18.7614 21 16V6C21 3.23858 18.7614 1 16 1Z" stroke="#333333" stroke-width="2" stroke-linecap="round" stroke-linejoin="round"/>
<path d="M15.0006 10.37C15.124 11.2023 14.9818 12.0522 14.5943 12.799C14.2068 13.5458 13.5937 14.1514 12.8422 14.5297C12.0907 14.908 11.239 15.0396 10.4083 14.906C9.57769 14.7723 8.81032 14.3801 8.2154 13.7852C7.62048 13.1903 7.22829 12.4229 7.09463 11.5922C6.96096 10.7616 7.09263 9.90992 7.47089 9.1584C7.84915 8.40688 8.45475 7.79377 9.20155 7.40627C9.94835 7.01877 10.7983 6.87662 11.6306 7.00003C12.4795 7.12591 13.2654 7.52149 13.8723 8.12833C14.4791 8.73518 14.8747 9.5211 15.0006 10.37Z" stroke="#333333" stroke-width="2" stroke-linecap="round" stroke-linejoin="round"/>
<path d="M16.4991 5.50006H16.5091" stroke="#333333" stroke-width="2" stroke-linecap="round" stroke-linejoin="round"/>
</svg>
