<svg width="16" height="16" viewBox="0 0 16 16" fill="none" xmlns="http://www.w3.org/2000/svg">
<path d="M14 7.05521C14.1852 8.30358 13.9719 9.57853 13.3907 10.6987C12.8094 11.8189 11.8898 12.7273 10.7625 13.2947C9.63521 13.8621 8.35772 14.0596 7.11173 13.8591C5.86574 13.6586 4.71469 13.0703 3.82231 12.1779C2.92992 11.2856 2.34165 10.1345 2.14115 8.88853C1.94065 7.64254 2.13815 6.36505 2.70554 5.23777C3.27293 4.11049 4.18133 3.19082 5.30153 2.60957C6.42172 2.02832 7.69668 1.81509 8.94505 2.00021C10.2184 2.18904 11.3973 2.7824 12.3076 3.69267C13.2179 4.60293 13.8112 5.78182 14 7.05521Z" stroke="#152787" stroke-width="3" stroke-linecap="round" stroke-linejoin="round"/>
</svg>
