<svg width="34" height="34" viewBox="0 0 34 34" fill="none" xmlns="http://www.w3.org/2000/svg">
<path d="M24.5 2H9.5C5.35786 2 2 5.35786 2 9.5V24.5C2 28.6421 5.35786 32 9.5 32H24.5C28.6421 32 32 28.6421 32 24.5V9.5C32 5.35786 28.6421 2 24.5 2Z" stroke="#152787" stroke-width="3" stroke-linecap="round" stroke-linejoin="round"/>
<path d="M23 16.0552C23.1852 17.3036 22.9719 18.5785 22.3907 19.6987C21.8094 20.8189 20.8898 21.7273 19.7625 22.2947C18.6352 22.8621 17.3577 23.0596 16.1117 22.8591C14.8657 22.6586 13.7147 22.0703 12.8223 21.1779C11.9299 20.2856 11.3416 19.1345 11.1412 17.8885C10.9407 16.6425 11.1381 15.365 11.7055 14.2378C12.2729 13.1105 13.1813 12.1908 14.3015 11.6096C15.4217 11.0283 16.6967 10.8151 17.945 11.0002C19.2184 11.189 20.3973 11.7824 21.3076 12.6927C22.2179 13.6029 22.8112 14.7818 23 16.0552Z" stroke="#152787" stroke-width="3" stroke-linecap="round" stroke-linejoin="round"/>
<path d="M25.25 8.75H25.265" stroke="#152787" stroke-width="3" stroke-linecap="round" stroke-linejoin="round"/>
</svg>
