<svg width="40" height="38" viewBox="0 0 40 38" fill="none" xmlns="http://www.w3.org/2000/svg">
<path d="M28 12C31.1826 12 34.2348 13.2643 36.4853 15.5147C38.7357 17.7652 40 20.8174 40 24V38H32V24C32 22.9391 31.5786 21.9217 30.8284 21.1716C30.0783 20.4214 29.0609 20 28 20C26.9391 20 25.9217 20.4214 25.1716 21.1716C24.4214 21.9217 24 22.9391 24 24V38H16V24C16 20.8174 17.2643 17.7652 19.5147 15.5147C21.7652 13.2643 24.8174 12 28 12Z" fill="#152787"/>
<path d="M8 14H0V38H8V14Z" fill="#152787"/>
<path d="M4 8C6.20914 8 8 6.20914 8 4C8 1.79086 6.20914 0 4 0C1.79086 0 0 1.79086 0 4C0 6.20914 1.79086 8 4 8Z" fill="#152787"/>
</svg>
